<?xml version="1.0" encoding="utf-8"?>
<!-- Generator: Adobe Illustrator 27.4.0, SVG Export Plug-In . SVG Version: 6.00 Build 0)  -->
<svg version="1.1" xmlns="http://www.w3.org/2000/svg" xmlns:xlink="http://www.w3.org/1999/xlink" x="0px" y="0px"
	 viewBox="0 0 1200 630" style="enable-background:new 0 0 1200 630;" xml:space="preserve">
<style type="text/css">
	.st0{display:none;}
	.st1{display:inline;fill:#150151;}
	.st2{clip-path:url(#SVGID_00000072262633875960965120000013588442845553273019_);}
	.st3{fill:#1B0077;}
	.st4{display:none;clip-path:url(#SVGID_00000072262633875960965120000013588442845553273019_);}
	.st5{display:inline;fill:#7831F7;}
	.st6{display:inline;fill:#DB00F4;}
	.st7{display:inline;fill:#00D3F9;}
	.st8{display:inline;fill:#EDE735;}
	.st9{fill:#660DBC;}
	.st10{fill:#F95DEE;}
	.st11{fill:#8A11EA;}
	.st12{fill:#FFFFFF;}
	.st13{fill:#FC5A5F;}
	.st14{fill:#B06FEF;}
	.st15{fill:#00D3F9;}
	.st16{fill:#DB00F4;}
	.st17{fill:#EDE735;}
	.st18{fill:#7831F7;}
	.st19{fill:#442D47;}
	.st20{fill:#150151;}
	.st21{display:inline;}
	.st22{fill:#00D3F9;stroke:#00D3F9;stroke-width:4.2116;stroke-miterlimit:10;}
	.st23{font-family:'UnicaOne-Regular';}
	.st24{font-size:149.5653px;}
	.st25{font-size:70.3001px;}
	.st26{font-size:70.489px;}
	.st27{font-size:24px;}
</style>
<g id="BACKGROUND" class="st0">
	<rect class="st1" width="1200" height="630"/>
</g>
<g id="OBJECTS">
	<defs>
		<rect id="SVGID_1_" width="1200" height="630"/>
	</defs>
	<clipPath id="SVGID_00000021826203128672823170000004494855595530898101_">
		<use xlink:href="#SVGID_1_"  style="overflow:visible;"/>
	</clipPath>
	<g style="clip-path:url(#SVGID_00000021826203128672823170000004494855595530898101_);">
		<path class="st3" d="M1226.22,374.93h-122.29c-126.39,0-228.85-102.46-228.85-228.85V-15.75h351.13V374.93z"/>
		<path class="st3" d="M0,179.59c-102.14,0-184.95,82.8-184.95,184.94c0,102.14,82.8,184.95,184.95,184.95
			c102.14,0,184.94-82.8,184.94-184.95C184.94,262.39,102.14,179.59,0,179.59z M0,451.64c-48.11,0-87.11-39-87.11-87.11
			c0-48.11,39-87.1,87.11-87.1c48.11,0,87.1,39,87.1,87.1C87.1,412.64,48.11,451.64,0,451.64z"/>
	</g>
	<g style="display:none;clip-path:url(#SVGID_00000021826203128672823170000004494855595530898101_);">
		<path class="st5" d="M109.84,241.75c-24.65-0.3-47.14-9.56-64.35-24.69v249.75l64.35,54.31V241.75z"/>
		<path class="st6" d="M109.84-8.82H45.48v76.44C62.7,52.5,85.19,43.24,109.84,42.94V-8.82z"/>
		<rect x="45.48" y="640.35" class="st5" width="64.35" height="82.02"/>
		<path class="st7" d="M11.64,142.34c0,29.78,13.1,56.5,33.84,74.72V67.62C24.74,85.84,11.64,112.56,11.64,142.34z"/>
		<path class="st8" d="M111.37,292.24c68.85,0,124.66-55.81,124.66-124.66c0-68.85-55.81-124.66-124.66-124.66
			c-0.51,0-1.02,0.01-1.53,0.02v249.27C110.35,292.22,110.86,292.24,111.37,292.24z"/>
		<path class="st1" d="M109.84,42.94c-24.65,0.3-47.14,9.56-64.35,24.69v149.44c17.22,15.12,39.71,24.39,64.35,24.69V42.94z"/>
		<polygon class="st8" points="0,428.43 0,640.35 45.48,640.35 45.48,466.81 		"/>
		<polygon class="st7" points="251.13,640.35 109.84,521.11 109.84,640.35 		"/>
		<polygon class="st6" points="109.84,521.11 45.48,466.81 45.48,640.35 109.84,640.35 		"/>
	</g>
	<g style="clip-path:url(#SVGID_00000021826203128672823170000004494855595530898101_);">
		<path class="st9" d="M910.03,633.8h-40.39c0,91.18,73.92,165.09,165.1,165.09v-40.39C965.87,758.51,910.03,702.68,910.03,633.8z"
			/>
		<path class="st9" d="M1034.74,468.71v40.39c68.87,0,124.7,55.83,124.7,124.71h40.39C1199.83,542.62,1125.92,468.71,1034.74,468.71
			z"/>
		<path class="st10" d="M1034.74,509.1v-40.39c-91.18,0-165.1,73.92-165.1,165.1h40.39C910.03,564.93,965.87,509.1,1034.74,509.1z"
			/>
		<path class="st11" d="M1034.74,758.51v40.39c91.18,0,165.09-73.92,165.09-165.09h-40.39
			C1159.44,702.68,1103.61,758.51,1034.74,758.51z"/>
		<path class="st12" d="M952.87,633.8h-42.83c0,68.87,55.83,124.7,124.7,124.7v-42.83C989.52,715.67,952.87,679.02,952.87,633.8z"/>
		<path class="st13" d="M1034.74,715.67v42.83c68.87,0,124.7-55.83,124.7-124.7h-42.83
			C1116.61,679.02,1079.95,715.67,1034.74,715.67z"/>
		<path class="st11" d="M910.03,633.8h42.83c0-45.22,36.65-81.87,81.87-81.87V509.1C965.87,509.1,910.03,564.93,910.03,633.8z"/>
		<path class="st14" d="M1116.61,633.8h42.83c0-68.87-55.83-124.71-124.7-124.71v42.83C1079.95,551.93,1116.61,588.59,1116.61,633.8
			z"/>
		<path class="st11" d="M1076.04,633.8h40.57c0-45.22-36.65-81.87-81.87-81.87v40.57C1057.55,592.5,1076.04,610.99,1076.04,633.8z"
			/>
		<path class="st10" d="M1034.74,675.1v40.57c45.22,0,81.87-36.66,81.87-81.87h-40.57C1076.04,656.61,1057.55,675.1,1034.74,675.1z"
			/>
		<path class="st13" d="M1034.74,592.5v-40.57c-45.22,0-81.87,36.65-81.87,81.87h40.57C993.44,610.99,1011.93,592.5,1034.74,592.5z"
			/>
		<path class="st11" d="M1034.74,715.67V675.1c-22.81,0-41.3-18.49-41.3-41.3h-40.57C952.87,679.02,989.52,715.67,1034.74,715.67z"
			/>
		<path class="st11" d="M1034.74,592.5c-22.81,0-41.3,18.49-41.3,41.3h41.3V592.5z"/>
		<path class="st12" d="M1076.04,633.8c0-22.81-18.49-41.3-41.3-41.3v41.3H1076.04z"/>
		<path class="st14" d="M993.44,633.8c0,22.81,18.49,41.3,41.3,41.3v-41.3H993.44z"/>
		<path class="st11" d="M1076.04,633.8h-41.3v41.3C1057.55,675.1,1076.04,656.61,1076.04,633.8z"/>
	</g>
	<g style="clip-path:url(#SVGID_00000021826203128672823170000004494855595530898101_);">
		<path class="st15" d="M185.27,129.23l13.54,22.06l8.02-22.06c0,0,24.57,2.51,30.58-2.51c6.02-5.01,3.51-61.67-0.5-66.68
			c-4.01-5.01-72.7-10.53-80.22-6.02c-7.52,4.51-7.52,75.71-2.51,78.21C159.19,134.74,185.27,129.23,185.27,129.23z"/>
		<path class="st16" d="M218.71,74.81c-3.01-3.79-8.28-4.57-12.65-2.91c-4.71,1.79-8.21,6.15-10.04,10.81
			c-1.36-4.22-3.46-8.41-7.6-10.41c-4.28-2.07-9.38-0.45-12.29,3.15c-7.3,9.02-0.2,20.9,6.03,28.17c2.24,2.62,4.67,5.08,7.3,7.31
			c1.32,1.12,2.69,2.17,4.12,3.15c1.09,0.74,2.53,2.05,3.92,1.93c1.23-0.11,2.04-1.25,2.87-2.03c1.49-1.38,2.9-2.85,4.42-4.2
			c2.42-2.16,4.56-4.61,6.62-7.11c3.51-4.27,7.15-8.97,8.99-14.23C221.99,83.85,221.81,78.71,218.71,74.81z"/>
	</g>
	<g style="clip-path:url(#SVGID_00000021826203128672823170000004494855595530898101_);">
		<g>
			<path class="st17" d="M982.94,112.43c0,0,21.49-2.45,21.5-2.45c-0.15-0.02,0.24-6.09,5.44-21.09c1.81-5.22,5.39-10.75,8.73-15.2
				c14.57-19.41,41.04-26.66,63.92-19.49c18.23,5.71,26.4,18.23,26.4,18.23s-7.07-27.21-30.75-32.93c-23.67-5.71-57.96,0-71.57,14.7
				C993,68.89,982.94,112.43,982.94,112.43z"/>
			<path class="st17" d="M1113.28,116.51c0.05,0-2.23,7.88-2.18,7.89c7,2.03,14.58,3.45,21.5,5.71c3.03,0.99,4.2,1.63,7.08,2.99
				c3.09-7.59,10.47-29.94,3.26-54.15c-10.21-34.29-63.68-44.49-77.56-46.12c-13.88-1.63-37.14,5.31-44.08,7.35
				c-6.94,2.04,40.41-11.02,65.72,8.57c25.31,19.59,26.94,41.63,27.76,53.06C1115.21,107.88,1114.27,113.01,1113.28,116.51z"/>
			<path class="st17" d="M985.11,146.17c0,0-11.16,4.63-15.24,15.79c-4.08,11.16-7.08,25.31,1.63,40.82
				c8.71,15.51,28.3,18.23,35.92,16.87c7.62-1.36,11.16-40.55,11.16-40.55S991.64,141.82,985.11,146.17z"/>
			<path class="st15" d="M1064.03,155.42c0,0,0-14.69-18.23-24.76c-18.23-10.07-48.16,0.27-59.59,12.24
				c-11.43,11.97-15.51,36.19-11.7,53.07c3.81,16.87,15.51,23.13,35.38,25.58c19.87,2.45,34.01,2.18,39.18-1.09
				C1054.23,217.19,1064.03,155.42,1064.03,155.42z"/>
			<path class="st15" d="M1134.78,166.03c0,0-18.23-29.66-41.91-32.11c-23.67-2.45-36.19,16.33-46.26,33.47
				c-10.07,17.14-17.96,41.91-5.44,56.87c12.52,14.97,33.74,22.31,51.97,22.86c18.23,0.54,25.31-8.44,34.29-20.68
				C1136.41,214.2,1134.78,166.03,1134.78,166.03z"/>
			<path class="st17" d="M1141.73,212.84c-4.14,6.99-13.69,22.37-24.29,28.67c-1.44,0.85-2.9,1.54-4.36,1.99
				c-1.6,0.55-3.22,0.81-4.83,0.77c-13.87-0.41-37.15-12.25-44.07-21.64c-6.94-9.39,0.81-26.93,7.34-39.6
				c6.53-12.65,17.95-29.79,31.43-30.2c13.48-0.4,25.31,5.72,37.57,17.56c1.71,1.66,3.1,3.53,4.14,5.52c0,0.02,0,0.02,0.02,0.02
				c1.08,2.05,1.85,4.22,2.35,6.49c0,0.02,0.02,0.02,0.02,0.02C1149.5,193.59,1145.52,206.43,1141.73,212.84z"/>
			<path class="st15" d="M991.54,263.47c0.47-4.14-0.94-9.08-2.4-12.35c-1.79-4-4.58-7.49-8-10.23c-6.25-5.02-15.99-9.71-23.93-5.99
				c-6.66,3.12-9.26,11.51-7.38,18.27c2.23,8.02,9.39,13.77,16.85,16.75c4.85,1.93,10.2,2.7,15.38,1.94
				c3.08-0.45,6.48-1.65,8.2-4.42C990.97,266.3,991.37,264.94,991.54,263.47z"/>
			<g>
				<path class="st18" d="M959.18,247.99C959.19,247.99,959.19,247.99,959.18,247.99c0.43,0,0.82-0.11,1.18-0.32
					c0.35-0.2,0.63-0.49,0.84-0.83c0.21-0.36,0.32-0.75,0.32-1.18c0.01-0.32-0.05-0.62-0.2-0.9c-0.09-0.29-0.25-0.54-0.48-0.75
					c-0.29-0.29-0.63-0.49-1.03-0.6c-0.41-0.11-0.82-0.11-1.24,0c-0.39,0.11-0.74,0.31-1.03,0.6c0,0,0,0,0,0.01
					c-0.12,0.16-0.24,0.31-0.36,0.47c-0.08,0.18-0.16,0.37-0.23,0.55c-0.03,0.21-0.06,0.41-0.08,0.62c-0.01,0.32,0.05,0.62,0.2,0.89
					c0.05,0.2,0.15,0.37,0.3,0.51c0.1,0.17,0.24,0.31,0.42,0.42c0.15,0.14,0.32,0.24,0.51,0.3
					C958.57,247.94,958.86,248.01,959.18,247.99L959.18,247.99z"/>
			</g>
			<g>
				<path class="st18" d="M969.02,243.51c0.07-0.01,0.14-0.03,0.21-0.04c0.15-0.06,0.29-0.13,0.44-0.19
					c0.21-0.12,0.39-0.28,0.52-0.48c0.12-0.11,0.2-0.25,0.24-0.41c0.12-0.22,0.17-0.46,0.16-0.71c-0.02-0.16-0.04-0.33-0.07-0.49
					c-0.06-0.15-0.12-0.29-0.19-0.44c-0.12-0.21-0.27-0.39-0.48-0.52c-0.18-0.16-0.39-0.27-0.63-0.33
					c-0.07-0.01-0.14-0.03-0.21-0.04c-0.34-0.09-0.67-0.09-1.01,0c-0.32,0.09-0.6,0.25-0.84,0.49c-0.1,0.13-0.2,0.26-0.3,0.38
					c-0.17,0.29-0.26,0.61-0.26,0.96c-0.01,0.26,0.04,0.5,0.16,0.73c0.08,0.23,0.21,0.44,0.39,0.61c0.23,0.23,0.52,0.4,0.84,0.49
					C968.34,243.6,968.68,243.6,969.02,243.51L969.02,243.51z"/>
			</g>
			<g>
				<path class="st18" d="M967.73,252.81c0.02,0.02,0.04,0.04,0.06,0.06c0.16,0.17,0.35,0.3,0.58,0.37
					c0.21,0.11,0.44,0.16,0.69,0.15c0.16-0.02,0.32-0.04,0.48-0.06c0.3-0.08,0.57-0.24,0.79-0.46c0.02-0.02,0.04-0.04,0.06-0.06
					c0.1-0.13,0.2-0.25,0.29-0.38c0.06-0.15,0.12-0.3,0.19-0.45c0.08-0.25,0.09-0.5,0.03-0.75c0-0.17-0.04-0.33-0.13-0.47
					c-0.04-0.16-0.13-0.3-0.24-0.42c-0.08-0.14-0.2-0.25-0.34-0.34c-0.12-0.11-0.26-0.2-0.42-0.24c-0.22-0.12-0.47-0.17-0.72-0.16
					c-0.17,0.02-0.33,0.04-0.5,0.07c-0.15,0.06-0.3,0.13-0.45,0.19c-0.13,0.1-0.25,0.2-0.38,0.29c-0.1,0.13-0.2,0.25-0.29,0.38
					c-0.06,0.15-0.13,0.3-0.19,0.45c-0.08,0.25-0.09,0.5-0.03,0.75c0,0.17,0.04,0.33,0.13,0.48
					C967.41,252.44,967.54,252.64,967.73,252.81L967.73,252.81z"/>
			</g>
			<g>
				<path class="st12" d="M1065.98,138.85c-12.55,10.01-20.05,25.66-26.01,40.2c-5.53,13.48-10.41,28.55-4.55,42.8
					c2.76,6.71,8.47,14.53,15.81,16.52c1.29,0.35,2.07-1.21,1.25-2.14c-2.29-2.59-5.23-4.55-7.61-7.06
					c-2.23-2.34-4.05-5.03-5.42-7.96c-2.5-5.35-3.2-11.45-2.93-17.3c0.37-7.84,3.18-15.23,6.03-22.46c2.77-7.04,5.9-13.9,9.54-20.54
					c4.17-7.62,9.33-14.39,15.08-20.89C1067.88,139.21,1066.81,138.2,1065.98,138.85L1065.98,138.85z"/>
			</g>
			<g>
				<path class="st18" d="M1128.91,232.52c3.09-1.63,5.4-4.5,7.35-7.35c0.97-1.41,1.83-2.9,2.57-4.44c0.38-0.8,0.76-1.61,1.04-2.45
					c0.29-0.91,0.31-1.72,0.2-2.65c-0.04-0.35-0.48-0.64-0.76-0.32c-0.54,0.6-0.99,1.14-1.36,1.88c-0.37,0.75-0.66,1.52-1.01,2.28
					c-0.7,1.51-1.51,2.98-2.43,4.37c-1.84,2.81-4.24,5.11-6.35,7.71C1127.73,232.08,1128.26,232.86,1128.91,232.52L1128.91,232.52z"
					/>
			</g>
			<g>
				<path class="st18" d="M1141.71,211.6c0.28-0.59,0.56-1.18,0.84-1.78c0.06-0.12,0.1-0.27,0.05-0.4c-0.04-0.11-0.1-0.2-0.19-0.27
					c-0.2-0.15-0.51-0.16-0.69,0.04c-0.43,0.48-0.85,0.96-1.28,1.44c-0.15,0.17-0.23,0.35-0.24,0.57c-0.01,0.25,0.12,0.48,0.31,0.63
					c0.18,0.14,0.37,0.19,0.59,0.16C1141.36,211.95,1141.61,211.82,1141.71,211.6L1141.71,211.6z"/>
			</g>
			<g>
				<path class="st19" d="M1145.39,89.94c0.13,0,0.13-0.2,0-0.2C1145.27,89.74,1145.27,89.94,1145.39,89.94L1145.39,89.94z"/>
			</g>
			<g>
				<path class="st19" d="M1145.39,94.92c0.93,0,0.93-1.45,0-1.45C1144.46,93.47,1144.46,94.92,1145.39,94.92L1145.39,94.92z"/>
			</g>
			<g>
				<path class="st18" d="M1006.88,97.41c-0.06-0.39-0.1-0.78-0.18-1.18c-0.34-1.62-0.8-3.22-1.32-4.8
					c-0.27-0.82-0.55-1.63-0.83-2.44c-4.01,11.12-5.86,20.3-5.7,31.3c0.2,13.67,2.65,22.55,2.65,22.55l4.69-1.02
					C1006.2,141.82,1000.31,118.32,1006.88,97.41z"/>
				<polygon class="st18" points="1003.88,114.81 998.93,115.52 982.32,117.93 982.93,111.2 999.38,109.54 1004.41,109.05 				"/>
				<path class="st18" d="M1110.02,145.08c0,0,10.61-41.09,5.17-61.23c-8.31-30.75-37.47-51.52-69.3-48.77
					c-27.42,2.37-52.39,21.43-60.47,47.97c-3.73,12.25-6.13,24.94-6.63,37.75c-0.26,6.6-0.02,13.22,0.79,19.78
					c0.15,1.25,2.27,13.86,3.09,15.38c0,0,4.63-3.22,4.62-3.27c-0.43-2.26-1.48-12.42-1.62-14.04
					c-2.54-30.07,2.84-63.45,27.47-83.81c12.27-10.15,27.87-15.47,43.81-13.72c29.66,3.27,45.45,20.14,50.89,43.54
					c5.44,23.4-3.54,60.14-3.54,60.14L1110.02,145.08z"/>
				<path class="st18" d="M1138.91,129.95c-3.36-1.76-10.27-4-11.45-4.34c-7.78-2.21-15.2-2.95-15.2-2.95l-1.92,6.46
					c0,0,1.52,0.06,7.48,1.38c4.39,0.97,12.06,3.24,15.81,4.37c-0.74,2.09-1.5,4.17-2.34,6.23c-2.5,6.16-5.44,12.1-8.74,17.85
					l5.68,4.37c0,0,4.35-5.99,8.98-19.59c1.58-4.65,2.71-8.78,3.52-12.21C1140.84,131.12,1140.09,130.56,1138.91,129.95z"/>
				<g>
					<path class="st18" d="M1035.69,198.58c0.04-0.62,0.13-1.23,0.2-1.84c-2.87,1.29-6.08,1.96-9.56,1.89
						c-4.08-0.08-8.73-0.75-12.31-2.84c-3.25-1.9-5.52-5.22-6.71-8.74c-2.64-7.78,0.15-16.58,4.96-22.95
						c4.88-6.46,12.48-10.31,20.63-9.9c6.34,0.32,12.22,4.38,15.28,9.92c0.44-0.6,0.89-1.19,1.37-1.75
						c-2.31-4.72-6.59-8.38-11.9-10.02c-9.2-2.83-19,0.36-25.57,7.19c-6.51,6.77-9.98,16.51-8.9,25.88
						c0.51,4.4,2.67,8.67,5.96,11.64c3.62,3.28,8.32,4.55,13.06,5.18c4.11,0.55,9.03,0.29,13.45-1.09
						C1035.62,200.27,1035.64,199.4,1035.69,198.58z"/>
				</g>
				<g>
					<path class="st18" d="M1144.67,175.93c-0.02,0-0.02,0-0.02-0.02c-4.1-3.96-9.21-7.04-14.14-9.02
						c-4.91-1.95-10.48-3.12-15.78-2.86c-5.62,0.3-10.43,2.96-14.64,6.55c-8.52,7.28-14.99,17.03-18.86,27.52
						c-1.97,5.35-3.65,11.29-3.33,17.05c0.32,5.56,2.98,10.12,7.1,13.77c4.81,4.28,10.65,7.65,16.51,10.32
						c2.94,1.34,5.96,2.5,9.06,3.47c0.83,0.26,1.66,0.53,2.53,0.79c1.46-0.45,2.92-1.14,4.36-1.99c-0.95-0.22-1.89-0.44-2.86-0.67
						c-2.74-0.69-5.44-1.54-8.09-2.54c-5.05-1.89-9.88-4.38-14.4-7.34c-4.38-2.88-9.1-6.39-10.85-11.56
						c-1.81-5.31-0.47-11.19,1.05-16.39c2.92-10,8.31-19.28,15.53-26.77c3.45-3.57,7.38-7.14,12.17-8.78
						c5.15-1.76,10.95-1.07,16.1,0.42c5.19,1.48,10.04,4.06,14.23,7.46c2.6,2.11,4.73,4.54,6.71,7.1c0,0.02,0.02,0.02,0.02,0.02
						L1144.67,175.93z"/>
				</g>
				<path class="st18" d="M1079.62,234.7c-1.17,1.99-2.35,3.93-3.75,5.85c-2.03,2.78-4.24,5.37-6.74,7.75
					c-5.03,4.79-10.91,8.63-17.28,11.4c-14.54,6.35-31.3,7.21-46.82,4.76c-5.92-0.93-11.75-2.38-17.48-4.14
					c-0.02,0-0.08,0.03-0.12,0.04c-0.03,0.01-0.05,0.02-0.06,0.03c-0.1,0.05-0.21,0.11-0.3,0.17c-0.04,0.03-0.13,0.09-0.16,0.12
					c-0.15,0.13-0.3,0.26-0.43,0.4c-0.07,0.07-0.28,0.36-0.13,0.14c-0.06,0.09-0.12,0.17-0.18,0.26c-0.13,0.2-0.24,0.4-0.34,0.61
					c-0.05,0.1-0.09,0.21-0.02,0.03c-0.02,0.05-0.04,0.1-0.06,0.15c-0.04,0.11-0.08,0.22-0.12,0.34c-0.07,0.23-0.13,0.47-0.17,0.7
					c-0.01,0.04-0.01,0.08-0.02,0.12c0,0.01,0,0.01-0.01,0.04c-0.01,0.12-0.02,0.24-0.02,0.36c-0.01,0.19,0.01,0.39,0.02,0.58
					c27.39,12.29,63.25,10.14,85.85-10.23c5.16-4.65,10.05-10.58,12.79-17.16C1082.55,236.29,1081.07,235.51,1079.62,234.7z"/>
				<g>
					<path class="st18" d="M1138.26,68.97c1.65,2.86,2.82,6.04,3.85,9.17c0.51,1.57,0.92,3.16,1.3,4.76
						c0.36,1.51,0.57,3.2,1.41,4.53c0.28,0.44,0.95,0.36,1.1-0.14c0.48-1.6,0.05-3.4-0.31-4.99c-0.38-1.65-0.91-3.28-1.48-4.88
						c-0.57-1.57-1.18-3.16-2.01-4.61c-0.87-1.52-1.79-3.02-2.71-4.51C1138.96,67.58,1137.83,68.22,1138.26,68.97L1138.26,68.97z"/>
				</g>
				<g>
					<path class="st18" d="M1128.53,114.55c1.64-0.21,3.17-0.13,4.71,0.27c0.78,0.2,1.53,0.51,2.31,0.73
						c0.45,0.13,0.87,0.18,1.32,0.22c0.38,0.03,0.67,0.14,1.07,0.07c0.26-0.05,0.39-0.36,0.33-0.59c-0.1-0.42-0.39-0.69-0.63-1.02
						c-0.29-0.41-0.67-0.73-1.11-1c-0.79-0.5-1.75-0.78-2.66-0.99c-1.88-0.43-3.77-0.47-5.67-0.2c-0.62,0.09-1,0.84-0.92,1.4
						C1127.35,114.01,1127.89,114.63,1128.53,114.55L1128.53,114.55z"/>
				</g>
				<g>
					<path class="st18" d="M1132.58,106.7c1.24,0.32,2.48,0.63,3.72,0.95c0.64,0.16,1.34,0.38,2.01,0.38c0.31,0,0.64-0.08,0.95-0.12
						c0.31-0.04,0.62-0.05,0.91-0.19c0.21-0.1,0.31-0.44,0.17-0.63c-0.19-0.25-0.44-0.41-0.7-0.59c-0.25-0.18-0.5-0.39-0.77-0.54
						c-0.58-0.32-1.3-0.46-1.94-0.62c-1.24-0.3-2.49-0.6-3.73-0.9c-0.6-0.14-1.3,0.19-1.44,0.82
						C1131.62,105.87,1131.94,106.54,1132.58,106.7L1132.58,106.7z"/>
				</g>
				<g>
					<path class="st18" d="M1112.52,188.6c2.38,0.81,4.69,1.82,6.94,2.92c1.1,0.54,2.15,1.18,3.25,1.71
						c1.05,0.51,2.45,1.18,3.65,1.09c0.32-0.02,0.65-0.33,0.52-0.68c-0.43-1.14-1.58-2.02-2.56-2.67c-1.13-0.76-2.48-1.26-3.74-1.78
						c-2.45-1.02-5-1.72-7.61-2.24C1111.89,186.72,1111.46,188.23,1112.52,188.6L1112.52,188.6z"/>
				</g>
				<g>
					<path class="st18" d="M1114.06,199.27c0.45,0.07,0.89,0.17,1.33,0.3c0.22,0.06,0.43,0.13,0.65,0.21
						c0.11,0.04,0.21,0.08,0.32,0.12c0.05,0.02,0.11,0.04,0.16,0.06c-0.15-0.06-0.17-0.07-0.05-0.02c0.41,0.19,0.81,0.41,1.22,0.61
						c0.19,0.09,0.33,0.13,0.52,0.17c0.12,0.02,0.24,0.04,0.37,0.05c0.12-0.01,0.23-0.02,0.34-0.05c-0.31-0.02-0.37-0.02-0.2,0.01
						c0.05,0.01,0.1,0.02,0.15,0.04c0.1,0.02,0.21,0.05,0.31,0.08c0.53,0.15,1-0.45,0.71-0.93c-0.05-0.09-0.11-0.18-0.17-0.27
						c-0.03-0.04-0.05-0.09-0.09-0.13c-0.06-0.11-0.07-0.08-0.01,0.08c0.04,0.19,0.04,0.19,0.01,0.01c-0.05-0.4-0.31-0.78-0.63-1.02
						c-0.44-0.34-0.96-0.56-1.47-0.78c-0.91-0.38-1.86-0.66-2.84-0.8c-0.33-0.04-0.61-0.05-0.9,0.12c-0.24,0.14-0.48,0.42-0.54,0.7
						C1113.11,198.4,1113.41,199.17,1114.06,199.27L1114.06,199.27z"/>
				</g>
				<g>
					<path class="st18" d="M1006.55,161.3c-0.06-0.05-0.12-0.1-0.17-0.15c0.19,0.16-0.13-0.15-0.19-0.19
						c-0.15-0.11-0.31-0.2-0.46-0.3c-0.28-0.17-0.55-0.34-0.83-0.5c-0.27-0.16-0.53-0.33-0.78-0.51c-0.14-0.1-0.1-0.07,0.02,0.02
						c-0.13-0.1-0.27-0.21-0.41-0.31c-0.14-0.09-0.27-0.18-0.4-0.28c-0.06-0.04-0.13-0.08-0.18-0.13c0.25,0.23,0.04,0.02-0.02-0.02
						c-0.11-0.1-0.23-0.19-0.34-0.29c-0.18-0.15-0.36-0.32-0.56-0.44c-0.12-0.07-0.14-0.05-0.02,0.02c-0.07-0.04-0.14-0.13-0.2-0.18
						c-0.28-0.26-0.58-0.45-0.89-0.67c-0.13-0.09-0.11-0.08-0.24-0.18c-0.15-0.12-0.3-0.24-0.45-0.35
						c-0.32-0.25-0.85,0.08-0.81,0.46c0.06,0.7,0.23,1.51,0.63,2.1c0.24,0.36,0.44,0.72,0.74,1.04c0.23,0.25,0.49,0.47,0.76,0.68
						c0.33,0.27,0.66,0.52,1.04,0.71c0.37,0.19,0.76,0.35,1.14,0.5c0.39,0.15,0.76,0.22,1.18,0.27c0.17,0.02,0.34,0.05,0.51,0.04
						c0.08-0.01,0.17-0.02,0.25-0.03c0.24-0.11,0.3-0.13,0.18-0.07c-0.06,0.03-0.05,0.03,0.04,0.01c0.05-0.01,0.1-0.02,0.15-0.03
						C1006.74,162.4,1006.96,161.65,1006.55,161.3L1006.55,161.3z"/>
				</g>
				<g>
					<path class="st18" d="M1017.06,154.77c-0.75-1.58-1.56-3.12-2.45-4.61c-0.87-1.47-2.17-2.75-3.35-3.97
						c-0.21-0.22-0.55,0.06-0.41,0.32c0.82,1.5,1.46,3.12,2.35,4.57c0.89,1.47,1.71,2.97,2.46,4.52c0.19,0.4,0.76,0.5,1.12,0.29
						C1017.17,155.64,1017.25,155.17,1017.06,154.77L1017.06,154.77z"/>
				</g>
				<g>
					<path class="st18" d="M1071.27,178.12c-0.11-0.1-0.18-0.22-0.29-0.33c-0.12-0.12-0.28-0.21-0.41-0.31
						c-0.24-0.18-0.47-0.36-0.74-0.49c-0.5-0.25-0.99-0.5-1.49-0.74c-0.53-0.26-1.17-0.44-1.75-0.53c-0.18-0.03-0.39-0.08-0.58-0.08
						c-0.21,0-0.18,0.02-0.33,0.01c-0.17-0.01-0.31-0.04-0.49-0.01c-0.13,0.02-0.26,0.03-0.39,0.03c-0.26,0.01-0.37,0.31-0.21,0.5
						c0.19,0.22,0.33,0.44,0.55,0.63c0.11,0.1,0.15,0.18,0.26,0.29c0.1,0.1,0.24,0.19,0.35,0.28c0.51,0.4,1.1,0.76,1.7,0.99
						c0.52,0.2,1.04,0.39,1.56,0.58c0.26,0.1,0.53,0.14,0.81,0.19c0.19,0.03,0.38,0.09,0.57,0.1c0.16,0,0.29-0.02,0.44-0.01
						C1071.37,179.24,1071.66,178.48,1071.27,178.12L1071.27,178.12z"/>
				</g>
				<g>
					<path class="st18" d="M1079.03,167.09c-0.71-0.76-1.26-1.56-1.89-2.38c-0.31-0.41-0.62-0.83-0.91-1.26
						c-0.29-0.44-0.49-0.93-0.77-1.38c-0.14-0.22-0.57-0.16-0.55,0.15c0.05,0.54,0.24,1.05,0.39,1.57c0.16,0.56,0.36,1.11,0.61,1.64
						c0.48,1.04,1.24,1.93,2.03,2.76c0.29,0.3,0.8,0.29,1.09,0C1079.34,167.87,1079.32,167.39,1079.03,167.09L1079.03,167.09z"/>
				</g>
				<g>
					<path class="st18" d="M1059.95,213.97c-1.18-0.15-2.46-0.13-3.6,0.21c-0.67,0.2-1.25,0.56-1.78,1.01
						c-0.21,0.18-0.4,0.44-0.52,0.58c-0.22,0.26-0.42,0.48-0.54,0.79c-0.12,0.31,0.18,0.62,0.48,0.62c0.28,0,0.53-0.09,0.8-0.14
						c0.11-0.03,0.13-0.03,0.06,0c0.11,0,0.23,0,0.34-0.03c0.13-0.02,0.26-0.05,0.39-0.07c0.5-0.09,1-0.19,1.48-0.33
						c0.48-0.15,0.97-0.3,1.46-0.41c0.26-0.06,0.53-0.11,0.79-0.15c-0.24,0.03,0.17-0.02,0.22-0.02c0.13-0.01,0.27-0.02,0.41-0.03
						c0.53-0.03,1.04-0.45,1.02-1.02C1060.94,214.38,1060.52,214.04,1059.95,213.97L1059.95,213.97z"/>
				</g>
			</g>
		</g>
	</g>
	<g style="clip-path:url(#SVGID_00000021826203128672823170000004494855595530898101_);">
		<g>
			<g>
				<g>
					<path class="st17" d="M138.19,347.83c-5.23,6.05-6.39,13.91-4.3,21.5c2.25,8.17,8.52,14.83,15.34,19.55
						c7.53,5.2,16.65,8.01,23.51,14.18c5.67,5.11,9.27,12.35,10.53,19.83c0.71,4.21,0.7,8.51-0.08,12.72
						c-0.77,4.14-2.68,7.8-3.84,11.8c-0.27,0.93,1.12,1.73,1.81,1.08c5.11-4.76,6.32-13.37,6.25-20.04
						c-0.07-7.28-2.2-14.52-6.05-20.7c-4.49-7.22-11.3-11.63-18.71-15.47c-8.05-4.17-16.05-8.56-21.39-16.16
						c-5.38-7.65-7.23-19.06-1.58-27.11C140.39,348,138.99,346.89,138.19,347.83L138.19,347.83z"/>
				</g>
				<g>
					<path class="st18" d="M113.98,423.84c0,0,0.08-12.31,6.76-12.72c6.68-0.41,23.9,2.16,26.76,6.82c2.86,4.66-0.2,12.9-0.2,12.9
						L113.98,423.84z"/>
					<path class="st18" d="M217.43,448.27c0,0-0.14-7.67,4.64-11.12c4.78-3.45,18.47,0.11,24.9,2.43c6.43,2.31,6.51,7.88,6.43,10.39
						c-0.09,2.51-1.47,7.1-1.47,7.1L217.43,448.27z"/>
					<path class="st17" d="M262.28,474.1c-1.58-7.69-3.86-15.3-9.28-21.2c-4.76-5.2-11.11-8.77-18.09-9.93
						c-7.66-1.26-15.65,0.3-21.94,4.76c-0.06-0.01-0.11-0.02-0.17-0.04c-0.08-0.01-0.17-0.02-0.25-0.04
						c-0.09-0.01-0.19-0.02-0.27-0.04c-0.25-0.04-0.49-0.09-0.74-0.13c-2.61-0.51-5.22-1.03-7.82-1.54
						c-5.69-1.13-11.39-2.35-17.07-3.53c-9.55-1.99-19.08-3.85-28.65-5.57c-0.18-0.26-0.38-0.51-0.57-0.77
						c-0.09-0.12-0.18-0.24-0.27-0.36c-0.33-0.39-0.63-0.8-0.94-1.17c-0.58-0.68-1.14-1.33-1.7-1.95
						c-3.13-3.48-6.72-6.52-10.73-8.95c-8.77-5.33-19.51-8.11-29.38-4.18c-10.81,4.28-17.82,13.94-23.91,23.38
						c-6.11,9.46-12.13,19.1-17.08,29.22c-4.88,9.96-11.82,22.33-14.3,34.46c-0.35,1.62-0.6,3.23-0.75,4.83
						c-0.28,2.78-0.27,5.53,0.1,8.22c1.06,7.55,5.57,14.65,13.06,17.16c8.57,2.85,17.76,0.1,25.61-3.62
						c7.46-3.51,14.23-8.36,20.14-14.08c3.25-3.14,6.25-6.52,8.98-10.12c1.56-2.03,3.36-4.27,4.88-6.62
						c4.26,1.09,8.45,2.58,12.6,3.78c7.72,2.22,15.53,4.14,23.33,6.06c7.79,1.92,15.64,3.7,23.4,5.79
						c3.99,1.07,7.97,2.17,11.91,3.38c0.27,0.08,0.54,0.18,0.81,0.26c1.62,18.67,6.57,37.5,21.76,49.71
						c7.93,6.4,19.54,11.34,28.27,3.5c3.92-3.49,5.87-8.28,7.35-13.2c0.82-2.75,1.53-5.57,2.12-8.39c0.58-2.77,1.07-5.55,1.46-8.35
						c0.14-0.98,0.27-1.96,0.37-2.96c1.09-8.64,1.52-17.52,1.64-26.19c0.08-4.53-0.02-9.07-0.28-13.59
						C265.38,492.69,264.15,483.29,262.28,474.1z"/>
					<path class="st18" d="M212.55,447.66c-1.18,7.09-2.56,14.11-5.03,15.82c-4.4,3.03-15.1,1.66-31.03-1.96
						c-15.93-3.65-19.21-6.03-20.49-11.8c-0.54-2.46,0.29-8.03,1.43-13.64c0.2,0.26,0.39,0.51,0.57,0.77
						c9.57,1.73,19.1,3.58,28.65,5.57c5.68,1.18,11.38,2.4,17.07,3.53c2.61,0.51,5.21,1.03,7.82,1.54c0.25,0.05,0.49,0.09,0.74,0.13
						C212.36,447.64,212.46,447.65,212.55,447.66z"/>
					<g>
						<path class="st18" d="M207.12,480.6c-2.12-2.53-4.74-5.06-7.99-6c-3.76-1.09-8.05-0.55-11.45,1.37
							c-2.61,1.47-4.7,3.95-5.81,6.73c-2.4,5.99-0.17,13.13,5.16,16.74c3.82,2.59,8.98,3.44,13.45,2.07
							c4.66-1.44,7.92-5.46,8.96-10.16C210.26,487.63,209.61,483.56,207.12,480.6z"/>
						<path class="st20" d="M203.76,482.75c-1.44-1.85-3.34-3.62-5.61-4.33c-1.59-0.5-4.06-0.87-5.74-0.08
							c-0.92,0.18-1.82,0.48-2.71,0.99c-1.87,1.06-3.37,2.82-4.16,4.82c-1.7,4.26-0.17,9.33,3.6,11.95c2.02,1.4,4.37,1.81,6.79,1.8
							c1.36,0,2.84-0.06,4.09-0.65c1.09-0.51,2.05-1.28,2.86-2.18C205.84,491.76,206.57,486.35,203.76,482.75z M202.5,492.71
							c-2.39,3.59-7.4,4.91-11.45,3.1c-3.85-1.72-5.74-5.72-4.93-9.8c1.18-6.03,9.41-8.57,14.22-5.17c2.99,2.11,4.22,6.25,3.18,9.71
							C203.28,491.34,202.93,492.07,202.5,492.71z"/>
					</g>
					<g>
						<path class="st18" d="M158.8,469.81c-2.12-2.53-4.74-5.06-7.99-6c-3.76-1.09-8.05-0.55-11.45,1.37
							c-2.61,1.48-4.7,3.95-5.81,6.73c-2.4,5.99-0.18,13.13,5.15,16.74c3.82,2.59,8.99,3.44,13.45,2.07
							c4.66-1.44,7.92-5.46,8.96-10.16C161.94,476.84,161.29,472.77,158.8,469.81z"/>
						<path class="st20" d="M155.44,471.96c-1.44-1.85-3.34-3.62-5.61-4.33c-1.59-0.5-4.06-0.87-5.74-0.08
							c-0.92,0.18-1.82,0.48-2.71,0.99c-1.87,1.06-3.37,2.82-4.16,4.82c-1.7,4.26-0.17,9.33,3.6,11.95c2.02,1.4,4.37,1.81,6.79,1.8
							c1.35,0,2.84-0.06,4.09-0.65c1.09-0.51,2.05-1.28,2.86-2.17C157.53,480.96,158.25,475.56,155.44,471.96z M154.18,481.92
							c-2.39,3.59-7.4,4.9-11.45,3.1c-3.85-1.72-5.74-5.72-4.93-9.8c1.18-6.03,9.41-8.57,14.22-5.17c2.99,2.11,4.22,6.24,3.18,9.71
							C154.96,480.55,154.61,481.27,154.18,481.92z"/>
					</g>
					<g>
						<path class="st20" d="M211.27,516.14c0.25,0.68-0.19,1.56-0.96,1.82c-0.27,0.11-0.58,0.11-0.91,0
							c-25.92-8.44-53.48-11.53-78.71-22.13c-6.13,7.81-12.7,15.58-20.71,21.55c-12.65,9.42-30.73,14-44.24,3.55
							c-3.32-2.6-5.83-5.89-7.37-9.59c0.14-1.6,0.4-3.21,0.75-4.83c3.01,14.08,18.55,20.51,32.09,17.49
							c16.76-3.74,27.81-17.61,38.36-30.02c0.29-0.35,0.76-0.48,1.19-0.29c25.58,10.75,53.49,13.2,79.74,21.75
							C210.94,515.57,211.17,515.82,211.27,516.14z"/>
					</g>
					<g>
						<path class="st20" d="M262.72,553.17c-1.56,2.53-3.47,4.85-5.84,6.83c-6.22,5.24-14.54,6.84-22.03,3.42
							c-7.25-3.34-12.37-10.13-16.07-16.99c-4.75-8.84-7.49-18.47-8.47-28.45c-0.04-0.35-0.08-0.68-0.1-1.03
							c-0.06-0.66,0.57-0.96,1.06-0.81l0,0.02c0.26,0.04,0.48,0.26,0.52,0.61c1.16,10.42,4.51,20.78,9.82,29.81
							c3.63,6.19,8.95,12.32,15.89,14.84c7.85,2.84,15.83-0.8,20.87-7.01c2.99-3.66,4.87-7.98,6.17-12.5c0,0,0.02-0.02,0.02-0.04
							L262.72,553.17z"/>
					</g>
					<g>
						<path class="st20" d="M112.84,459.55c1.69,1.42,4.21,2.08,6.38,2.16c0.96,0.03,2.1,0.12,2.82-0.62
							c0.77-0.77,0.95-2.15,1.26-3.16c0.38-1.22,0.77-2.44,1.15-3.66c0.09-0.29,0.17-0.58,0.27-0.87c0.04-0.12,0.08-0.24,0.13-0.36
							c0.13-0.23-0.02-0.28-0.46-0.14c-0.05,0.11,1.21,0.77,1.32,0.83c1.92,1.01,4.81,2.08,6.97,1.38c1.15-0.37,1.17-2.25,0.03-2.66
							c-1-0.36-2.13-0.32-3.17-0.53c-1.09-0.22-2.09-0.62-3.09-1.1c-0.89-0.42-1.96-0.55-2.8,0.06c-0.86,0.63-1.06,1.68-1.35,2.64
							c-0.35,1.17-0.71,2.34-1.06,3.51c-0.18,0.58-0.35,1.17-0.53,1.75c-0.07,0.24-0.14,0.47-0.23,0.7c-0.09,0.16-0.05,0.16,0.11,0
							c-0.08,0.01-0.16,0.02-0.24,0.03c-0.52-0.07-1.09,0.05-1.63,0.01c-0.59-0.05-1.17-0.14-1.74-0.29
							c-1.14-0.28-2.13-0.84-3.19-1.31C112.81,457.49,112.02,458.86,112.84,459.55L112.84,459.55z"/>
					</g>
					<g>
						<path class="st20" d="M106.9,446.6c0.51,0.8,1.51,1.18,2.32,1.6c0.71,0.37,1.42,0.76,2.15,1.12c0.72,0.36,1.46,0.69,2.18,1.03
							c0.39,0.18,0.77,0.37,1.17,0.55c0.69,0.31,1.27,0.41,2.01,0.2c0.77-0.23,1.19-1.32,0.85-2.02c-0.52-1.07-1.66-1.38-2.69-1.79
							c-0.74-0.3-1.48-0.62-2.23-0.91c-0.75-0.29-1.52-0.55-2.28-0.82c-0.87-0.31-1.82-0.79-2.77-0.62
							C106.79,445.07,106.46,445.91,106.9,446.6L106.9,446.6z"/>
					</g>
					<g>
						<path class="st20" d="M132.6,454.74c0.24-0.12,0.47-0.24,0.64-0.46c0.14-0.18,0.23-0.42,0.33-0.63
							c0.16-0.33,0.32-0.67,0.48-1.01c0.31-0.68,0.61-1.36,0.88-2.05c0.27-0.69,0.54-1.39,0.78-2.09c0.12-0.35,0.25-0.7,0.36-1.05
							c0.06-0.18,0.12-0.35,0.17-0.53c0.1-0.33,0.11-0.62,0.1-0.97c-0.02-1.1-1.69-1.53-2.29-0.64c-0.19,0.28-0.33,0.53-0.42,0.86
							c-0.03,0.09-0.05,0.18-0.08,0.27c-0.04,0.16-0.05,0.18-0.02,0.06c-0.1,0.36-0.21,0.72-0.32,1.07
							c-0.21,0.69-0.44,1.38-0.68,2.06c-0.24,0.68-0.48,1.37-0.73,2.04c-0.13,0.35-0.26,0.7-0.4,1.05c-0.08,0.22-0.2,0.45-0.24,0.68
							c-0.04,0.29,0.04,0.53,0.11,0.8C131.43,454.69,132.17,454.96,132.6,454.74L132.6,454.74z"/>
					</g>
					<g>
						<path class="st20" d="M127.37,443.61c0.54-0.5,1.03-1.01,1.46-1.6c0.45-0.6,0.81-1.23,1.14-1.91
							c0.61-1.26,1.14-2.55,1.57-3.88c0.29-0.89,0.81-2.01,0.17-2.86c-0.39-0.51-1.13-0.75-1.72-0.47c-0.67,0.31-0.9,0.89-1.07,1.56
							c-0.04,0.15-0.07,0.29-0.11,0.43c-0.03,0.1-0.05,0.19-0.08,0.29c0,0-0.07,0.24-0.03,0.1c0.04-0.14-0.03,0.1-0.03,0.1
							c-0.03,0.1-0.06,0.19-0.09,0.29c-0.06,0.19-0.12,0.38-0.18,0.57c-0.21,0.64-0.45,1.27-0.7,1.9c-0.29,0.72-0.66,1.4-0.92,2.13
							c-0.27,0.76-0.54,1.49-0.79,2.26c-0.12,0.39-0.07,0.81,0.27,1.08C126.55,443.83,127.08,443.89,127.37,443.61L127.37,443.61z"
							/>
					</g>
					<g>
						<path class="st20" d="M226.02,492c2.18,3.3,6.74,4.13,10.02,2.01c1.63-1.05,2.66-2.85,3.1-4.7c0.43-1.81,0.21-3.59-0.85-5.13
							c-0.92-1.33-3.42-4.06-5.01-2.12c-0.22,0.26-0.25,0.62-0.13,0.93c0.06,0.17-0.07-0.27-0.02-0.1c0.07,0.28,0.15,0.52,0.32,0.76
							c0.2,0.28,0.49,0.51,0.76,0.71c0.25,0.18,0.5,0.36,0.74,0.57c0.33,0.29,0.33,0.29,0.58,0.59c0.2,0.24,0.4,0.49,0.57,0.75
							c0.06,0.09,0.19,0.35,0.08,0.12c0.06,0.12,0.11,0.25,0.17,0.37c0.14,0.33-0.01-0.25,0.02,0.12c0.02,0.16,0.04,0.33,0.06,0.5
							c0.03,0.43,0.03,0.51-0.02,0.93c-0.14,1.23-0.67,2.44-1.61,3.25c-0.99,0.85-2.19,1.27-3.51,1.19c-1.6-0.1-3.07-0.62-4.23-1.77
							C226.44,490.37,225.58,491.35,226.02,492L226.02,492z"/>
					</g>
					<g>
						<path class="st20" d="M240.01,481.21c1.03,1.58,2.47,3.17,4.17,4.04c1.77,0.91,3.86,0.82,5.63-0.05
							c3.61-1.77,5.63-5.99,4-9.81c-0.44-1.03-1.08-1.92-1.88-2.7c-0.78-0.75-1.97-1.53-3.1-1.29c-0.89,0.19-1.35,1.11-0.81,1.9
							c0.29,0.42,0.67,0.68,1.07,0.97c0.18,0.13,0.35,0.28,0.52,0.42c0.05,0.05,0.41,0.39,0.33,0.3c0.65,0.69,0.92,1.23,1.21,2.11
							c0.43,1.29,0.1,3.03-0.93,4.33c-1,1.26-2.63,2.21-4.29,1.88c-1.87-0.36-3.4-1.71-4.54-3.16
							C240.69,479.29,239.4,480.28,240.01,481.21L240.01,481.21z"/>
					</g>
					<g>
						<path class="st20" d="M229.88,465.91c2.47,3.29,7.14,3.53,10.51,1.5c3.35-2.02,4.91-7.1,2.05-10.2
							c-0.78-0.84-1.7-1.54-2.84-1.76c-1.02-0.21-2.18,0.05-2.71,0.98c-0.1,0.18-0.06,0.48,0.08,0.63c0.3,0.36,0.6,0.56,1.02,0.78
							c0.25,0.14,0.63,0.38,0.81,0.49c0.67,0.4,1.13,0.66,1.6,1.39c0.11,0.17,0.12,0.19,0.05,0.09c0.05,0.1,0.1,0.2,0.15,0.31
							c0.08,0.17,0.15,0.34,0.2,0.52c0.04,0.13,0.12,0.84,0.12,1.02c-0.02,0.75-0.24,1.5-0.61,2.15c-0.86,1.5-2.58,2.4-4.25,2.64
							c-1.88,0.26-3.64-0.35-4.99-1.67C230.36,464.11,229.33,465.18,229.88,465.91L229.88,465.91z"/>
					</g>
					<g>
						<path class="st20" d="M217.84,477.56c1.32,0.96,2.74,1.8,4.41,1.93c1.67,0.13,3.22-0.5,4.47-1.59
							c2.28-1.98,3.32-5.08,2.22-7.97c-0.52-1.37-1.5-2.65-2.81-3.32c-0.7-0.35-1.83-0.47-2.37,0.23c-0.46,0.6-0.06,1.28,0.36,1.77
							c0.23,0.27,0.54,0.47,0.8,0.71c0.11,0.09,0.21,0.19,0.33,0.28c0,0,0.18,0.16,0.07,0.06c-0.11-0.11,0.14,0.15,0.16,0.18
							c0.19,0.22,0.35,0.45,0.51,0.7c-0.12-0.19,0.06,0.11,0.09,0.18c0.08,0.17,0.16,0.35,0.22,0.53c0.02,0.07,0.13,0.4,0.07,0.17
							c0.04,0.14,0.06,0.28,0.08,0.43c0.03,0.17,0.04,0.33,0.05,0.5c0,0.07,0.01,0.14,0.01,0.21c0-0.16,0-0.03-0.01,0.06
							c-0.07,0.73-0.15,1.04-0.42,1.66c-0.5,1.14-1.5,2.2-2.73,2.67c-1.65,0.63-3.51,0.17-5.19-0.15
							C217.76,476.71,217.5,477.31,217.84,477.56L217.84,477.56z"/>
					</g>
					<g>
						<path class="st18" d="M241.76,459.91c-0.33-1.93-1.42-3.47-3.19-4.31c-2.25-1.06-5.22-0.73-7.21,0.75
							c-2.42,1.8-3.23,5.4-1.74,8.03c0.75,1.33,1.95,2.39,3.38,2.94c1.6,0.61,3.41,0.43,5-0.11
							C240.99,466.18,242.26,462.85,241.76,459.91z"/>
						<path class="st18" d="M227.07,470.32c-0.79-4.7-6.85-6.2-10.4-3.56c-2.42,1.8-3.23,5.41-1.74,8.03
							c0.75,1.33,1.95,2.39,3.38,2.94c1.6,0.61,3.41,0.43,5-0.12C226.29,476.58,227.56,473.26,227.07,470.32z"/>
						<path class="st18" d="M248.92,471.71c-2.22-1.06-5.23-0.72-7.2,0.75c-2.42,1.8-3.23,5.41-1.74,8.03
							c0.75,1.33,1.95,2.39,3.38,2.94c1.6,0.61,3.41,0.43,5-0.11c2.98-1.02,4.26-4.34,3.76-7.29
							C251.79,474.09,250.69,472.55,248.92,471.71z"/>
						<path class="st18" d="M234.03,481.39c-2.21-1.06-5.07-0.89-7.17,0.67c-2.41,1.8-3.23,5.41-1.74,8.03
							c0.75,1.33,1.95,2.39,3.38,2.94c1.6,0.61,3.41,0.43,5-0.12c2.98-1.03,4.26-4.35,3.76-7.29
							C236.92,483.59,235.65,482.16,234.03,481.39z"/>
					</g>
					<g>
						<path class="st18" d="M122.14,430.81c-0.17,0.36-9.87,26.33-9.15,27.06c0.72,0.73,6.04,2.73,7.44,1.97
							c1.4-0.76,9.25-26.39,9.3-27.16C129.78,431.91,122.82,429.32,122.14,430.81z"/>
						<path class="st18" d="M110.29,436.63c0,0,24.09,7.84,24.22,8.51c0.13,0.67-1.68,7.52-2.54,7.67
							c-0.86,0.15-24.01-6.59-24.37-7.72C107.25,443.94,108.55,436.63,110.29,436.63z"/>
					</g>
					<g>
						<path class="st20" d="M245.53,481.89c1.24,0.32,2.61,0.03,3.61-0.77c0.53-0.43,0.96-0.94,1.3-1.53
							c0.4-0.69,0.66-1.54,0.02-2.17c0.06,0.07,0.11,0.15,0.17,0.22c-0.01-0.02-0.01-0.04-0.02-0.05c-0.13-0.34-0.67-0.46-0.89-0.12
							c-0.01,0.01-0.02,0.03-0.03,0.05c0.07-0.06,0.15-0.11,0.22-0.17c-0.34,0.19-0.56,0.45-0.72,0.81c-0.1,0.23-0.17,0.47-0.29,0.7
							c-0.03,0.06-0.06,0.12-0.1,0.18c-0.03,0.05-0.02,0.04,0.03-0.04c-0.02,0.03-0.04,0.06-0.05,0.09c-0.07,0.1-0.14,0.2-0.21,0.3
							c-0.08,0.1-0.17,0.2-0.26,0.3c-0.15,0.16,0.12-0.11-0.04,0.04c-0.05,0.04-0.1,0.09-0.15,0.13c-0.19,0.17-0.4,0.32-0.61,0.46
							c-0.1,0.07-0.2,0.14-0.3,0.2c0.13-0.08-0.04,0.02-0.07,0.03c-0.06,0.03-0.12,0.06-0.18,0.08c-0.5,0.22-0.88,0.34-1.42,0.35
							c-0.23,0.01-0.41,0.25-0.41,0.46C245.13,481.67,245.29,481.83,245.53,481.89L245.53,481.89z"/>
					</g>
					<g>
						<path class="st19" d="M250.84,476.6c0-0.13,0-0.25-0.01-0.38c0-0.06-0.02-0.13-0.03-0.19c-0.01-0.06-0.02-0.13-0.03-0.19
							c-0.02-0.12-0.11-0.22-0.23-0.24c-0.12-0.01-0.24,0.05-0.29,0.16c-0.03,0.06-0.05,0.11-0.08,0.17
							c-0.02,0.06-0.05,0.11-0.07,0.17c-0.04,0.12-0.07,0.24-0.11,0.37c-0.03,0.07-0.04,0.15-0.03,0.23
							c0.01,0.08,0.04,0.15,0.09,0.22c0.07,0.09,0.17,0.16,0.29,0.17c0.11,0.02,0.24-0.01,0.34-0.08c0.06-0.05,0.11-0.11,0.14-0.18
							C250.84,476.75,250.85,476.68,250.84,476.6L250.84,476.6z"/>
					</g>
					<g>
						<path class="st20" d="M229.76,492.2c0.42,0.54,1.36,0.6,1.98,0.45c0.67-0.16,1.32-0.49,1.84-0.95
							c0.54-0.49,0.97-1.05,1.23-1.73c0.12-0.32,0.26-0.69,0.29-1.03c0.01-0.18,0.02-0.35-0.01-0.52c-0.02-0.15-0.01-0.32-0.09-0.45
							c-0.08-0.16-0.25-0.2-0.4-0.11c-0.21,0.13-0.39,0.41-0.53,0.61c-0.17,0.23-0.32,0.53-0.44,0.72c-0.29,0.46-0.61,0.96-1,1.34
							c-0.1,0.1,0.12-0.1-0.06,0.06c-0.05,0.04-0.1,0.09-0.15,0.13c-0.1,0.08-0.21,0.16-0.32,0.23c-0.1,0.07-0.13,0.08-0.29,0.15
							c-0.12,0.05-0.24,0.1-0.37,0.14c-0.29,0.09-0.36,0.11-0.65,0.15c-0.28,0.04-0.59,0.04-0.86,0.14
							C229.68,491.62,229.58,491.98,229.76,492.2L229.76,492.2z"/>
					</g>
					<g>
						<path class="st20" d="M219.48,475.78c1.21,1.1,3.14,1.02,4.38,0.03c0.35-0.28,0.67-0.66,0.73-1.12
							c0.04-0.25-0.02-0.52-0.27-0.63c-0.08-0.04-0.18-0.04-0.26-0.03c-0.1,0.01-0.19,0.04-0.27,0.1c-0.02,0.02-0.12,0.13-0.03,0.05
							c-0.05,0.04-0.12,0.07-0.17,0.11c-0.06,0.05-0.11,0.11-0.17,0.17c-0.07,0.07,0.11-0.09-0.02,0.02
							c-0.03,0.02-0.05,0.05-0.08,0.07c-0.03,0.03-0.23,0.22-0.14,0.13c0.07-0.07-0.06,0.06-0.06,0.05
							c-0.07,0.06-0.14,0.12-0.22,0.17c-0.08,0.05-0.15,0.1-0.23,0.15c0.11-0.07-0.06,0.03-0.1,0.05c-0.17,0.08-0.34,0.14-0.52,0.19
							c-0.02,0-0.2,0.05-0.05,0.02c-0.06,0.01-0.11,0.03-0.16,0.04c-0.09,0.02-0.18,0.03-0.27,0.04c-0.1,0.01-0.2,0.02-0.3,0.02
							c-0.1,0,0.14,0.01-0.04,0c-0.06-0.01-0.11-0.01-0.17-0.01c-0.39-0.04-0.69-0.12-1-0.33
							C219.56,474.72,219.04,475.37,219.48,475.78L219.48,475.78z"/>
					</g>
					<g>
						<path class="st20" d="M234.86,466.38c1.36,0.26,2.88-0.12,3.98-0.95c0.58-0.44,1.07-0.99,1.42-1.63
							c0.32-0.61,0.48-1.46,0.12-2.08c-0.1-0.18-0.36-0.13-0.48-0.01c-0.18,0.2-0.31,0.47-0.43,0.69c-0.17,0.33-0.29,0.5-0.47,0.81
							c-0.05,0.09-0.09,0.15-0.18,0.29c-0.08,0.11-0.16,0.22-0.25,0.33c-0.2,0.24-0.34,0.39-0.56,0.58
							c-0.85,0.73-1.87,1.19-3.02,1.06C234.4,465.41,234.27,466.27,234.86,466.38L234.86,466.38z"/>
					</g>
					<g>
						<path class="st20" d="M159.63,440.23c-0.49,0.9-0.69,1.94-0.76,2.95c-0.04,0.52-0.04,1.03,0.03,1.55
							c0.04,0.28,0.11,0.56,0.22,0.82c0.11,0.25,0.19,0.46,0.42,0.63c0.15,0.11,0.4,0.11,0.52-0.06c0.27-0.41,0.26-0.98,0.27-1.46
							c0-0.43,0-0.88,0.02-1.3c0.04-0.95,0.24-1.88,0.38-2.81c0.04-0.28-0.14-0.56-0.41-0.64
							C160.02,439.83,159.77,439.97,159.63,440.23L159.63,440.23z"/>
					</g>
					<g>
						<path class="st20" d="M159.18,450.37c0.15,0.44,0.35,0.85,0.6,1.24c0.05,0.08,0.11,0.17,0.17,0.25
							c0.09,0.1,0.19,0.23,0.29,0.31c0.04,0.03,0.09,0.05,0.13,0.08c0.05,0.02,0.11,0.03,0.16,0.05c0.04,0.01,0.02,0-0.08-0.03
							c-0.09-0.05-0.11-0.05-0.07-0.02c0.03,0.04,0.08,0.07,0.12,0.1c0.16,0.11,0.31,0.11,0.5,0.11c0.14,0,0.3-0.16,0.31-0.3
							c0-0.04,0-0.07,0-0.11c0-0.08,0-0.15-0.02-0.22c-0.02-0.08-0.06-0.14-0.1-0.21c-0.01-0.02-0.03-0.05-0.05-0.08
							c-0.02-0.04-0.02-0.02,0.02,0.07c0.03,0.1,0.04,0.12,0.03,0.05c0-0.01,0-0.02,0-0.03c-0.01-0.08-0.03-0.16-0.08-0.22
							c-0.03-0.04-0.05-0.09-0.08-0.13c-0.13-0.2-0.26-0.4-0.38-0.61c0.03,0.05,0.05,0.09,0.08,0.14c-0.17-0.29-0.3-0.6-0.41-0.92
							c-0.11-0.32-0.53-0.48-0.83-0.35C159.2,449.69,159.07,450.03,159.18,450.37L159.18,450.37z"/>
					</g>
					<g>
						<path class="st20" d="M196.19,493.76c0.62,0.01,1.28-0.04,1.86-0.28c0.56-0.24,1.09-0.59,1.52-1.01
							c0.47-0.46,0.86-0.97,1.17-1.55c0.3-0.57,0.6-1.41,0.06-1.93c-0.1-0.09-0.27-0.1-0.39-0.06c-0.53,0.23-0.68,0.89-0.92,1.37
							c-0.19,0.38-0.52,0.83-0.84,1.15c-0.12,0.12-0.38,0.33-0.56,0.47c-0.19,0.15-0.48,0.33-0.61,0.4
							c-0.44,0.25-0.86,0.49-1.4,0.63C195.71,493.06,195.79,493.75,196.19,493.76L196.19,493.76z"/>
					</g>
					<g>
						<path class="st20" d="M200.78,487.78c0.54-0.06,0.44-0.91-0.1-0.85C200.14,487,200.24,487.85,200.78,487.78L200.78,487.78z"/>
					</g>
					<g>
						<path class="st20" d="M145.84,483.47c1.29,0.42,2.65,0.34,3.87-0.28c0.61-0.31,1.15-0.71,1.63-1.2
							c0.45-0.46,1.06-1.29,0.62-1.93c-0.08-0.12-0.23-0.17-0.37-0.16c-0.58,0.06-0.93,0.76-1.29,1.17
							c-0.29,0.33-0.75,0.69-1.14,0.9c-0.94,0.5-1.99,0.75-3.06,0.58C145.58,482.46,145.31,483.29,145.84,483.47L145.84,483.47z"/>
					</g>
					<g>
						<path class="st20" d="M153.98,477.15c-0.06-0.31-0.13-0.62-0.2-0.94c-0.02-0.07-0.04-0.13-0.09-0.19
							c-0.05-0.05-0.11-0.09-0.18-0.09c-0.14-0.02-0.29,0.05-0.35,0.19c-0.11,0.29-0.22,0.57-0.33,0.86
							c-0.07,0.2-0.07,0.43,0.07,0.6c0.1,0.12,0.23,0.21,0.39,0.23c0.15,0.02,0.33-0.02,0.45-0.11
							C153.91,477.58,154.02,477.35,153.98,477.15L153.98,477.15z"/>
					</g>
					<g>
						<path class="st20" d="M248.96,446.46c0.16,0.01,0.33,0.03,0.48,0.07c0.16,0.04,0.33,0.07,0.49,0.12
							c-0.06-0.02-0.13-0.04-0.19-0.05c0.15,0.04,0.29,0.11,0.44,0.14c0.09,0.02,0.18,0.03,0.27,0.05c0.07,0,0.13,0,0.2,0
							c0.1-0.01,0.19-0.04,0.27-0.1c0.13-0.08,0.26-0.19,0.31-0.34c0.05-0.12,0.07-0.25,0.06-0.38c-0.01-0.16-0.13-0.4-0.28-0.49
							c-0.11-0.07-0.21-0.13-0.32-0.19c-0.11-0.06-0.22-0.09-0.34-0.11c-0.14-0.03-0.28-0.05-0.42-0.06
							c-0.19-0.01-0.38-0.01-0.57,0.03c-0.18,0.03-0.37,0.08-0.54,0.14c-0.05,0.03-0.09,0.05-0.14,0.08
							c-0.07,0.05-0.12,0.11-0.15,0.18c-0.07,0.11-0.11,0.26-0.09,0.39c0.02,0.11,0.06,0.21,0.12,0.3
							C248.64,446.34,248.82,446.45,248.96,446.46L248.96,446.46z"/>
					</g>
					<g>
						<path class="st20" d="M248.52,443.7c0.25,0.08,0.49,0.16,0.74,0.24c0.16,0.05,0.32,0.09,0.48,0.12
							c0.14,0.02,0.27,0.04,0.41-0.01c0.08-0.03,0.14-0.08,0.2-0.14c0.14-0.12,0.17-0.27,0.12-0.44c-0.03-0.08-0.05-0.15-0.1-0.23
							c-0.08-0.11-0.21-0.17-0.33-0.22c-0.06-0.02-0.11-0.05-0.17-0.07c-0.1-0.04-0.21-0.06-0.31-0.09c-0.25-0.07-0.5-0.13-0.75-0.2
							c-0.12-0.03-0.31,0.02-0.41,0.1c-0.09,0.08-0.16,0.17-0.19,0.28c-0.03,0.11-0.04,0.25,0.01,0.35
							C248.3,443.53,248.39,443.66,248.52,443.7L248.52,443.7z"/>
					</g>
					<g>
						<path class="st20" d="M141.14,420.56c0.27,0.19,0.57,0.36,0.88,0.48c0.14,0.06,0.28,0.11,0.42,0.15
							c0.17,0.05,0.36,0.12,0.54,0.13c0.25,0.02,0.53,0.03,0.69-0.21c0.08-0.12,0.1-0.21,0.06-0.36c-0.04-0.13-0.14-0.24-0.27-0.3
							c-0.05-0.02-0.13-0.04-0.19-0.05c-0.06-0.02,0.09,0.03,0.03,0.01c-0.02,0-0.03-0.01-0.05-0.01c-0.11-0.03-0.21-0.06-0.32-0.08
							c-0.07-0.02-0.15-0.04-0.22-0.05c-0.05-0.01,0.04,0.01,0.04,0.01c-0.01,0-0.03-0.01-0.05-0.01c-0.04-0.01-0.08-0.03-0.12-0.04
							c-0.16-0.06-0.32-0.12-0.47-0.2c-0.08-0.04-0.15-0.08-0.23-0.12c-0.01-0.01-0.03-0.02-0.04-0.02c0.1,0.04,0.04,0.03,0.01,0
							c-0.04-0.03-0.08-0.05-0.12-0.08c-0.21-0.14-0.51-0.14-0.67,0.08C140.91,420.09,140.92,420.41,141.14,420.56L141.14,420.56z"
							/>
					</g>
					<g>
						<path class="st20" d="M143.66,418.66c0.06,0.02,0.12,0.05,0.17,0.09c-0.04-0.02-0.07-0.04-0.11-0.07
							c0.09,0.05,0.17,0.11,0.25,0.18c0.07,0.07,0.15,0.13,0.22,0.2c-0.02-0.02-0.05-0.05-0.07-0.07c0.07,0.08,0.14,0.16,0.2,0.25
							c0.07,0.11,0.25,0.16,0.37,0.1c0.13-0.06,0.21-0.19,0.2-0.33c-0.01-0.13-0.04-0.25-0.07-0.37c-0.03-0.11-0.07-0.21-0.12-0.31
							c-0.12-0.22-0.3-0.41-0.49-0.56c-0.11-0.09-0.25-0.12-0.39-0.11c-0.16,0.01-0.3,0.12-0.39,0.25
							C143.26,418.18,143.37,418.53,143.66,418.66L143.66,418.66z"/>
					</g>
					<g>
						<path class="st20" d="M248.92,553.18c1.81-0.08,3.73-0.46,5.32-1.33c0.85-0.47,1.65-0.96,2.36-1.63
							c0.43-0.41,0.87-0.81,1.18-1.32c0.05-0.08,0.33-0.77,0.3-0.74c-0.07,0.07-0.06,0.23,0.04,0.04c0.25-0.43,0.19-0.93,0.05-1.39
							c0.03,0.25,0.06,0.5,0.09,0.74c0.03-0.25,0.11-0.44,0.08-0.7c-0.02-0.2-0.11-0.36-0.16-0.54c-0.1-0.37-0.56-0.57-0.9-0.53
							c0.34-0.03-0.39,0.03-0.45,0.05c-0.16,0.03-0.31,0.09-0.43,0.2c-0.14,0.09-0.16,0.1-0.06,0.02c0.25-0.03,0.5-0.06,0.74-0.09
							c-0.46-0.04-0.84,0.04-1.23,0.29c-0.08,0.05-0.15,0.11-0.23,0.17c0.32-0.23-0.19,0.09-0.26,0.14
							c-0.35,0.22-0.63,0.54-0.94,0.8c-0.61,0.51-1.26,1.01-1.93,1.44c-0.1,0.06-0.55,0.31-0.23,0.15
							c-0.26,0.14-0.53,0.28-0.78,0.43c-0.15,0.09-0.12,0.08,0.01,0c-0.08,0.05-0.17,0.1-0.26,0.14c-0.17,0.09-0.35,0.18-0.52,0.26
							c-0.37,0.18-0.75,0.33-1.15,0.44c-0.02,0.01-0.3,0.08-0.16,0.05c0.14-0.03-0.14,0.03-0.17,0.04
							c-0.21,0.05-0.43,0.09-0.65,0.13c-0.72,0.12-1.35,0.78-1.22,1.55C247.5,552.75,248.14,553.21,248.92,553.18L248.92,553.18z"/>
					</g>
					<g>
						<path class="st20" d="M254.77,541.95c1.27-0.29,2.48-0.73,3.54-1.51c0.5-0.37,0.94-0.81,1.29-1.32
							c0.13-0.19,0.37-0.63,0.37-0.88c0.02-0.06,0.01-0.04-0.01,0.06c-0.03,0.12-0.03,0.13,0.01,0.03c0.03-0.05,0.04-0.09,0.07-0.14
							c0.17-0.36,0.18-0.7,0.13-1.08c-0.06-0.44-0.46-0.76-0.9-0.71c-0.34,0.04-0.61,0.09-0.91,0.27c-0.05,0.03-0.09,0.06-0.14,0.08
							c0.16-0.09,0.18-0.1,0.07-0.04c-0.1,0.03-0.19,0.07-0.29,0.1c0.12-0.03,0.25-0.07,0.37-0.09c-0.15,0.04-0.3,0.07-0.45,0.11
							c-0.13,0.07-0.27,0.15-0.4,0.23c-0.1,0.06-0.19,0.12-0.29,0.17c0.12-0.07,0.23-0.13,0.35-0.2c-0.48,0.27-0.95,0.56-1.43,0.83
							c0.13-0.07,0.25-0.14,0.38-0.21c-0.8,0.45-1.61,0.84-2.51,1.08c0.15-0.04,0.29-0.07,0.44-0.11c-0.03,0.01-0.05,0.01-0.08,0.02
							c-0.45,0.11-0.82,0.24-1.12,0.62c-0.25,0.32-0.41,0.82-0.35,1.23c0.07,0.43,0.26,0.86,0.63,1.12
							C253.87,541.85,254.34,542.05,254.77,541.95L254.77,541.95z"/>
					</g>
					<g>
						<path class="st20" d="M86.95,517.34c1.82,0.3,3.68,0.39,5.52,0.28c0.92-0.06,1.84-0.22,2.73-0.44
							c0.96-0.23,2.42-0.79,2.48-1.94c0.08-1.36-1.56-1.37-2.49-1.24c-0.91,0.13-1.81,0.38-2.71,0.54
							c-1.71,0.31-3.43,0.46-5.16,0.37c-0.66-0.04-1.29,0.33-1.4,1.03C85.82,516.6,86.29,517.23,86.95,517.34L86.95,517.34z"/>
					</g>
					<g>
						<path class="st20" d="M97.62,510.22c0.4-0.14,0.8-0.28,1.19-0.42c0.4-0.14,0.81-0.26,1.19-0.43c0.44-0.21,0.9-0.39,1.29-0.68
							c0.52-0.39,1.14-0.85,1.05-1.59c-0.02-0.09-0.05-0.19-0.07-0.28c-0.21-0.21-0.42-0.41-0.63-0.62
							c-0.23-0.13-0.52-0.15-0.78-0.14c-0.19,0.01-0.38,0.02-0.57,0.03c-0.5,0.03-1,0.21-1.49,0.34c-0.41,0.11-0.8,0.28-1.19,0.43
							c-0.39,0.15-0.79,0.3-1.18,0.44c-0.77,0.29-1.21,1.29-0.86,2.05C95.94,510.17,96.79,510.51,97.62,510.22L97.62,510.22z"/>
					</g>
				</g>
			</g>
		</g>
	</g>
	<g style="clip-path:url(#SVGID_00000021826203128672823170000004494855595530898101_);">
		<path class="st18" d="M1118.33,334.74c-3.06,2.76-4.22,7.45-2.8,11.32c1.43,3.87,5.34,6.69,9.47,6.8
			c2.14,0.06,4.26-0.55,6.16-1.54c1.23-0.64,2.39-1.46,3.26-2.53c1.38-1.7,1.89-3.92,1.73-6.07c-0.13-1.83-0.68-3.9-1.66-5.47
			c-0.35-0.56-0.8-1.03-1.27-1.48c-0.76-0.74-1.51-1.52-2.41-2.11c-1.8-1.17-3.99-1.67-6.12-1.53c-2.07,0.13-4.12,0.85-5.77,2.11
			C1118.72,334.4,1118.52,334.56,1118.33,334.74z"/>
		<g>
			<g>
				<path class="st15" d="M1133.9,346.16c-0.92,0.96-1.5,2.16-2.44,3.11c-1.03,1.05-2.32,1.73-3.74,2.09
					c-2.92,0.74-6.66,0.42-8.94-1.72c-4.57-4.31-2.83-13.43,3.08-15.69c1.45-0.55,3.05-0.71,4.58-0.49
					c1.48,0.21,3.12,0.66,4.32,1.56c0.25,0.18,0.54-0.21,0.32-0.42c-1.18-1.14-2.39-2.06-4.01-2.45c-1.56-0.37-3.19-0.35-4.75,0.02
					c-3.57,0.87-6.12,3.78-7.36,7.14c-1.32,3.57-0.83,7.78,1.55,10.78c2.46,3.1,6.73,4.31,10.56,3.86c2.09-0.25,4.04-1.07,5.65-2.42
					c1.43-1.2,2.81-3.12,2.32-5.07C1134.93,345.96,1134.26,345.79,1133.9,346.16z"/>
				<path class="st15" d="M1175.93,342.14c-2.52-1.18-6.05-0.54-8.78-0.54c-3.04,0-6.08,0.01-9.13,0.01c-1.8,0-3.6,0.01-5.4,0.01
					c-0.12-2.23-0.53-4.47-1.3-6.66c-2.11-5.96-6.04-11.03-11.67-14.02c-3.81-2.03-9.06-3.5-13.64-2.78c0-0.47,0-0.93,0-1.38
					c0.01-2.88,0.01-5.75,0.01-8.62c0-2.87,0.01-5.75,0.01-8.62c0-2.6,0.49-5.64-0.74-8.02c-0.23-0.45-0.96-0.45-1.2,0
					c-1.23,2.37-0.75,5.42-0.75,8.02c0.01,2.87,0.01,5.75,0.01,8.62c0,2.88,0,5.75,0.01,8.62c0,0.68-0.01,1.37-0.01,2.06
					c-10.04-0.04-19.01,8.71-22.7,17.52c-0.69,1.66-1.16,3.36-1.46,5.07c-0.16,0-0.33,0-0.49,0c-2.88-0.01-5.75-0.01-8.62-0.01
					c-2.88,0-5.75-0.01-8.62-0.01c-2.6,0-5.64-0.49-8.02,0.74c-0.45,0.24-0.45,0.96,0,1.2c2.37,1.23,5.42,0.75,8.02,0.74
					c2.87,0,5.75-0.01,8.62-0.01c2.88,0,5.75,0,8.62-0.01c0.06,0,0.12,0,0.17,0c-0.5,8.28,3.37,16.46,10.37,21.54
					c4.23,3.06,9.23,4.61,14.3,4.77c0,1.9-0.01,3.81-0.01,5.71c-0.01,3.04-0.01,6.08-0.01,9.13c0,2.73-0.64,6.26,0.54,8.78
					c0.22,0.46,1,0.46,1.22,0c1.18-2.52,0.54-6.05,0.54-8.78c0-3.04-0.01-6.08-0.01-9.13c0-1.91-0.01-3.82-0.01-5.73
					c5.68-0.27,11.3-2.24,15.87-5.74c6.48-4.96,10.65-12.71,10.96-20.74c1.79,0,3.59,0.01,5.38,0.01c3.04,0,6.08,0.01,9.13,0.01
					c2.73,0,6.26,0.64,8.78-0.54C1176.4,343.14,1176.4,342.35,1175.93,342.14z M1142.89,360.05c-4.58,4.65-10.74,7.32-17.08,7.68
					c0-0.26,0-0.52,0-0.78c-0.01-3.03,0.35-6.37-0.39-9.33c-0.18-0.72-1.28-0.72-1.46,0c-0.74,2.96-0.38,6.3-0.39,9.33
					c0,0.27,0,0.54,0,0.8c-3.07-0.08-6.14-0.7-9.05-1.9c-8.58-3.54-14.29-12.58-13.63-21.79c1.96-0.01,3.95-0.12,5.73-0.92
					c0.3-0.14,0.3-0.66,0-0.8c-1.68-0.75-3.54-0.9-5.39-0.92c0-0.02,0.01-0.05,0.01-0.07c2.22-10.49,10.92-18.81,21.27-20.83
					c0.1,0.05,0.2,0.09,0.32,0.09c0.19,0,0.38-0.02,0.57-0.02c0.08,1.41,0.3,2.8,0.88,4.08c0.14,0.3,0.66,0.3,0.8,0
					c0.59-1.33,0.81-2.77,0.88-4.23c1.24-0.08,2.48-0.15,3.71-0.06c2.6,0.2,5.35,1.03,7.7,2.13c4.47,2.11,8.06,5.62,10.25,10.06
					c1.42,2.88,2.17,5.95,2.32,9.05c-0.35,0-0.71,0-1.06,0c-3.03,0.01-6.37-0.35-9.33,0.39c-0.72,0.18-0.72,1.28,0,1.46
					c2.96,0.74,6.29,0.38,9.33,0.39c0.35,0,0.7,0,1.05,0C1149.67,349.84,1147.19,355.69,1142.89,360.05z"/>
				<path class="st15" d="M1134.11,301.64c1.33,0.13,2.64,0.36,3.95,0.64c2.35,0.51,4.7,1.12,6.91,2.09
					c4.5,1.96,8.93,5.08,12.29,8.66c3.33,3.55,6.12,8.19,7.86,12.74c0.86,2.24,1.45,4.6,1.89,6.96c0.39,2.13,0.1,5,1.14,6.91
					c0.21,0.38,0.88,0.43,1.07,0c0.91-1.98,0.18-4.75-0.17-6.83c-0.45-2.7-1.21-5.29-2.09-7.87c-1.75-5.14-4.35-9.59-7.94-13.67
					c-3.66-4.17-7.89-7.17-12.96-9.39c-2.43-1.06-4.91-2.04-7.5-2.59c-2.03-0.43-5.4-1.54-7.1-0.06c-0.46,0.39-0.38,1.13,0,1.53
					C1132.25,301.61,1133,301.53,1134.11,301.64z"/>
				<path class="st15" d="M1167.12,348.92c-1.13,0.54-1.15,1.56-1.46,2.67c-0.3,1.06-0.64,2.12-1.02,3.15
					c-0.81,2.22-1.69,4.42-2.85,6.49c-2.28,4.09-5.38,8.1-8.73,11.37c-3.29,3.22-7.3,6.06-11.37,8.21c-2.17,1.15-4.55,1.99-6.9,2.67
					c-1.86,0.53-4.53,0.54-6.06,1.75c-0.41,0.32-0.1,0.88,0.27,1.04c1.88,0.79,4.99-0.45,6.84-1c2.37-0.71,4.62-1.68,6.86-2.7
					c4.63-2.11,8.56-4.94,12.32-8.38c3.79-3.47,6.76-7.32,9.27-11.8c1.23-2.21,2.41-4.45,3.27-6.83c0.67-1.83,2.21-4.75,0.86-6.47
					C1168.12,348.7,1167.52,348.74,1167.12,348.92z"/>
				<path class="st15" d="M1117.08,383.74c-1.25-0.26-2.47-0.6-3.69-0.97c-2.17-0.66-4.27-1.44-6.27-2.52
					c-3.84-2.06-7.53-4.96-10.59-8.06c-3.15-3.18-5.47-7.01-7.65-10.89c-1.11-1.96-1.83-4.17-2.42-6.33
					c-0.38-1.4-0.69-2.81-0.92-4.24c-0.21-1.25-0.25-2.51-0.86-3.63c-0.27-0.49-0.97-0.33-1.13,0.15c-0.81,2.41,0.34,5.88,0.98,8.26
					c0.64,2.37,1.58,4.61,2.47,6.89c1.7,4.34,4.66,8.13,7.75,11.58c3.21,3.57,6.78,6.35,10.99,8.65c2.09,1.14,4.26,2.2,6.51,2.97
					c2.03,0.71,5.7,2.25,7.67,1.02c0.62-0.39,0.69-1.17,0.22-1.7C1119.29,383.97,1118.26,383.99,1117.08,383.74z"/>
				<path class="st15" d="M1085.17,338.8c0.88-0.69,0.86-1.49,1.05-2.54c0.21-1.14,0.47-2.26,0.76-3.38
					c0.58-2.23,1.21-4.43,2.15-6.54c1.75-3.89,4.29-7.95,7.19-11.08c2.72-2.93,5.97-5.77,9.38-7.86c1.87-1.15,3.87-2.13,5.9-2.97
					c1.57-0.65,3.84-0.96,5.04-2.19c0.32-0.33,0.19-0.92-0.27-1.04c-1.84-0.45-4.16,0.82-5.83,1.52c-2.02,0.84-3.96,1.84-5.85,2.94
					c-3.87,2.23-7.27,4.77-10.31,8.06c-3.27,3.53-5.77,7.13-7.74,11.53c-0.99,2.21-1.94,4.48-2.59,6.82
					c-0.48,1.75-1.73,4.91-0.58,6.52C1083.91,339.19,1084.58,339.26,1085.17,338.8z"/>
			</g>
		</g>
	</g>
	<g style="display:none;clip-path:url(#SVGID_00000021826203128672823170000004494855595530898101_);">
		<g class="st21">
			<path class="st17" d="M573.35,538.94h17.78c2.94,0,5.35,2.41,5.35,5.35v17.78c0,2.94-2.41,5.35-5.35,5.35h-17.78
				c-2.94,0-5.35-2.41-5.35-5.35v-17.78C568,541.35,570.4,538.94,573.35,538.94z"/>
			<path class="st20" d="M588.73,548.54c0.62-0.49,1.1-1.01,1.29-1.74c-0.55,0.21-1.08,0.44-1.62,0.62
				c-0.21,0.07-0.45,0.21-0.69-0.02c-0.48-0.46-1.05-0.75-1.71-0.86c-1.14-0.2-2.15,0.07-3,0.87c-0.77,0.72-1.13,1.62-1.07,2.68
				c0.01,0.19,0,0.38,0,0.59c0,0-0.08,0-0.22-0.02c-1.36-0.13-2.6-0.5-3.71-1.08c-0.83-0.41-1.68-0.98-2.4-1.76
				c-0.12-0.12-0.5-0.6-0.57-0.7c0,0-0.26,0.32-0.43,0.85c-0.28,1.06-0.08,2.06,0.6,2.97c0.19,0.25,0.45,0.45,0.68,0.68
				c-0.01,0.03-0.03,0.05-0.04,0.08c-0.45-0.12-0.9-0.25-1.34-0.37c-0.11,1.13,0.68,2.74,2.52,3.39c-0.43,0.02-0.86,0.04-1.34,0.06
				c0.56,1.41,1.6,2.15,3.11,2.35c-1.41,1.05-2.95,1.49-4.64,1.44l0,0c0,0,5.62,3.14,10.56-0.24c0.82-0.58,3.61-2.92,4.11-7.37
				c-0.02-0.06,0.11-0.94,0.12-1.31c0,0,0.79-0.48,1.51-1.43C589.86,548.3,589.35,548.56,588.73,548.54z"/>
		</g>
		<g class="st21">
			<path class="st17" d="M645.71,538.94h17.78c2.94,0,5.35,2.41,5.35,5.35v17.78c0,2.94-2.41,5.35-5.35,5.35h-17.78
				c-2.94,0-5.35-2.41-5.35-5.35v-17.78C640.36,541.35,642.76,538.94,645.71,538.94z"/>
			<path class="st20" d="M660.95,546.52H648.7c-1.95,0-3.53,1.58-3.53,3.53v6.26c0,1.95,1.58,3.53,3.53,3.53h12.25
				c1.95,0,3.53-1.58,3.53-3.53v-6.26C664.48,548.1,662.9,546.52,660.95,546.52z M652.99,555.56v-4.88l4.81,2.44L652.99,555.56z"/>
		</g>
		<g class="st21">
			<path class="st17" d="M609.02,538.94h17.78c2.94,0,5.35,2.41,5.35,5.35v17.78c0,2.94-2.41,5.35-5.35,5.35h-17.78
				c-2.94,0-5.35-2.41-5.35-5.35v-17.78C603.68,541.35,606.08,538.94,609.02,538.94z"/>
			<path class="st20" d="M618.13,544.6c-4.7,0-8.52,3.7-8.52,8.26c0,2.27,0.94,4.33,2.47,5.82c0.23,0.23,0.37,0.53,0.38,0.86
				l0.06,1.48c0.02,0.5,0.54,0.82,1,0.61l1.43-0.67c0.33-0.15,0.7-0.18,1.04-0.1c0.68,0.17,1.39,0.26,2.13,0.26
				c4.7,0,8.52-3.7,8.52-8.26C626.65,548.3,622.84,544.6,618.13,544.6z M623.29,550.87l-2.57,4.08c-0.39,0.62-1.22,0.78-1.81,0.35
				l-1.99-1.45c-0.2-0.15-0.48-0.15-0.68-0.01l-2.78,1.92c-0.28,0.19-0.63-0.13-0.45-0.42l2.53-4.1c0.39-0.63,1.24-0.78,1.82-0.32
				l1.85,1.45c0.24,0.18,0.57,0.19,0.81,0.02l2.76-1.99C623.1,550.18,623.5,550.55,623.29,550.87z"/>
		</g>
		<g class="st21">
			<path class="st17" d="M536.51,538.94h17.78c2.94,0,5.35,2.41,5.35,5.35v17.78c0,2.94-2.41,5.35-5.35,5.35h-17.78
				c-2.94,0-5.35-2.41-5.35-5.35v-17.78C531.16,541.35,533.57,538.94,536.51,538.94z"/>
			<g>
				<path class="st20" d="M544.39,548.38h-6.34v6.34h3.48v3.64c1.58,0,2.86-1.28,2.86-2.86v-0.86h0V548.38z"/>
				<path class="st20" d="M552.77,554.64v-6.26h-6.34v6.34h3.48v3.64c1.58,0,2.86-1.28,2.86-2.86L552.77,554.64L552.77,554.64z"/>
			</g>
		</g>
	</g>
</g>
<g id="TEXTS" class="st0">
	<g class="st21">
		<text transform="matrix(1 0 0 1 370.793 363.0264)" class="st22 st23 st24">gaming</text>
	</g>
	<g class="st21">
		<text transform="matrix(1 0 0 1 420.6333 220.9512)" class="st15 st23 st25">JAKE &amp; SAMS</text>
	</g>
	<g class="st21">
		<text transform="matrix(1 0 0 1 478.832 442.6621)" class="st15 st23 st26">CHANNEL</text>
	</g>
	<text transform="matrix(1 0 0 1 511.8853 74.8706)" class="st8 st23 st27">yourwebsite.com</text>
</g>
</svg>
